Genre:Comedy
Language:English  http://www.imdb.com/title/tt1445675/
Source:DVD

General
Complete name :Love.Shack.2010.DvDRip.H264.Feel-Free
Format : MPEG-4
Format profile : Base Media / Version 2
Codec ID : mp42
File size : 767 MiB
Duration : 1h 28mn
Overall bit rate : 1 212 Kbps
Video #1
Codec ID : avc1
Codec ID/Info : Advanced Video Coding
Duration : 1h 28mn
Bit rate mode : Variable
Bit rate : 827 Kbps
Width : 720 pixels
Height : 384 pixels
Display aspect ratio : 1.875
Frame rate mode : Constant
Frame rate : 23.976 fps
Resolution : 24 bits
Colorimetry : 4:2:0
Scan type : Progressive
Bits/(Pixel*Frame) : 0.125
Stream size : 524 MiB (68%)
Audio #2
ID : 2
Format : AAC
Format/Info : Advanced Audio Codec
Format version : Version 4
Format profile : LC
Format settings, SBR : No
Codec ID : 40
Duration : 1h 28mn
Bit rate mode : Constant
Bit rate : 384 Kbps
Channel(s) : 6 channels
Channel positions : Front: L C R, Rear: L R, LFE
Sampling rate : 48.0 KHz
Resolution : 16 bits
Stream size : 241 MiB (31%)

Plot:
A dysfunctional family of adult film stars reunites for a memorial porn shoot following the death of legendary producer Mo Saltzman. Along the way, the film's hapless director must contend with dueling divas, bickering couples, emotionally-scarred tag-team brothers, and a dominatrix with low self-esteem. Given its all-star cast and lofty pedigree, the film should be the greatest porno of all time
 
http://www.rapidhdd.com/images/248711vlcsnap-2010-11-25-13h51m39s55.png 
http://www.rapidhdd.com/images/529243vlcsnap-2010-11-25-13h52m17s187.png
 
http://www.youtube.com/watch?v=p-Pb3T2CYhM&feature=player_embedded